# xmcd
#
# Track frame offsets:
#	187
#	19887
#	40587
#	69462
#	87087
#	100737
#	135612
#
# Disc length: 2679 seconds
#
# Revision: 1
# Processed by: cddbd v1.4PL0 Copyright (c) Steve Scherf et al.
# Submitted via: audiograbber 1.82.01
#
DISCID=4f0a7507
DTITLE=Cash McCall - No More Doggin'
DYEAR=1983
DGENRE=Pop
TTITLE0=Mojo Woman
TTITLE1=Something Funny Is Going On
TTITLE2=No More Doggin'
TTITLE3=European Holiday
TTITLE4=I'll Be There
TTITLE5=Southern Woman
TTITLE6=Hurry Sundown
EXTD=
EXTT0=
EXTT1=
EXTT2=
EXTT3=
EXTT4=
EXTT5=
EXTT6=
PLAYORDER=
